<?xml version="1.0" standalone="no"?>
<!DOCTYPE svg PUBLIC "-//W3C//DTD SVG 20010904//EN"
 "http://www.w3.org/TR/2001/REC-SVG-20010904/DTD/svg10.dtd">
<svg version="1.0" xmlns="http://www.w3.org/2000/svg"
 width="500.000000pt" height="500.000000pt" viewBox="0 0 500.000000 500.000000"
 preserveAspectRatio="xMidYMid meet">
<metadata>
Created by potrace 1.11, written by Peter Selinger 2001-2013
</metadata>
<g transform="translate(0.000000,500.000000) scale(0.100000,-0.100000)"
fill="#000000" stroke="none">
<path d="M563 4993 c9 -2 25 -2 35 0 9 3 1 5 -18 5 -19 0 -27 -2 -17 -5z"/>
<path d="M1155 4990 c3 -5 12 -10 20 -10 8 0 17 5 20 10 4 6 -5 10 -20 10 -15
0 -24 -4 -20 -10z"/>
<path d="M1580 4986 c0 -7 -9 -16 -20 -19 -27 -7 -25 -35 4 -48 16 -8 26 -22
29 -43 7 -43 -13 -56 -74 -49 -58 7 -62 -3 -16 -38 41 -31 87 -48 160 -59 32
-5 75 -17 96 -28 20 -11 52 -23 71 -27 19 -4 45 -16 58 -25 25 -20 52 -16 92
13 l25 17 -52 53 c-105 105 -118 125 -118 181 l0 51 -67 -1 c-38 0 -68 3 -68
8 0 4 7 8 15 8 8 0 15 5 15 10 0 6 -32 10 -75 10 -57 0 -75 -3 -75 -14z m85
-198 c27 -12 33 -28 11 -28 -27 0 -67 20 -61 30 8 13 18 13 50 -2z"/>
<path d="M1950 4996 c0 -10 51 -56 62 -56 10 0 10 2 -1 9 -18 11 1 23 26 15
13 -4 15 -3 4 4 -11 8 -10 12 5 21 15 8 8 10 -38 11 -32 0 -58 -2 -58 -4z"/>
<path d="M2150 4994 c0 -4 14 -22 30 -41 30 -34 39 -63 20 -63 -15 0 -71 30
-88 46 -7 8 -25 14 -40 14 l-27 -1 29 -23 c15 -13 24 -26 18 -30 -20 -12 -23
-57 -5 -93 22 -48 20 -69 -12 -99 -44 -40 -27 -58 45 -50 49 6 66 3 97 -13 90
-49 112 -55 131 -38 9 8 34 18 55 22 41 8 60 25 27 25 -11 0 -23 7 -26 15 -9
22 -30 18 -48 -7 -14 -19 -18 -20 -43 -9 -25 11 -26 14 -11 25 9 6 41 11 71
10 41 -1 57 2 61 13 10 25 -4 60 -30 74 -16 8 -24 20 -22 32 4 25 -29 48 -41
29 -11 -17 -44 -4 -36 15 4 12 -1 14 -20 11 -27 -6 -30 -1 -15 22 8 13 13 13
41 -3 37 -20 49 -12 49 36 0 15 5 27 11 27 26 0 0 33 -36 46 -39 14 -185 20
-185 8z"/>
<path d="M3202 4983 c2 -10 14 -19 26 -21 19 -3 23 1 20 15 -2 10 -14 19 -26
21 -19 3 -23 -1 -20 -15z"/>
<path d="M3532 4990 c9 -6 22 -26 28 -45 19 -59 111 -104 102 -50 -2 11 -5 39
-5 63 l-2 42 -70 0 c-50 -1 -65 -3 -53 -10z"/>
<path d="M4136 4988 c-28 -98 -28 -120 1 -165 12 -18 18 -49 22 -115 1 -5 8
-8 16 -8 16 0 19 18 15 110 -1 49 2 59 29 89 36 40 36 43 15 76 -13 20 -25 25
-55 25 -23 0 -41 -5 -43 -12z"/>
<path d="M4953 4944 c7 -63 10 -69 33 -60 13 5 15 14 10 44 -11 60 -16 72 -33
72 -13 0 -15 -9 -10 -56z"/>
<path d="M790 4982 c0 -6 13 -16 29 -23 25 -11 28 -16 19 -32 -5 -11 -7 -28
-4 -40 3 -11 0 -29 -5 -40 -9 -15 -6 -24 12 -43 27 -28 47 -30 87 -7 26 15 32
15 46 3 9 -7 15 -19 12 -26 -7 -18 22 -26 45 -11 17 10 23 8 45 -20 36 -46 48
-43 39 10 -4 23 -8 57 -8 75 0 17 -5 32 -11 32 -6 0 -22 9 -36 19 -19 15 -22
22 -12 33 17 21 -5 41 -30 27 -26 -14 -48 -4 -48 21 0 15 -7 20 -25 20 -28 0
-35 -24 -9 -34 8 -3 12 -10 9 -16 -3 -5 -1 -10 4 -10 6 0 11 -7 11 -15 0 -22
-37 -18 -50 4 -5 11 -19 23 -30 26 -15 5 -19 12 -15 26 5 14 2 19 -12 19 -10
0 -28 3 -40 6 -13 4 -23 2 -23 -4z"/>
<path d="M144 4956 c-10 -8 -16 -17 -12 -21 8 -8 48 13 48 25 0 14 -13 12 -36
-4z"/>
<path d="M2804 4915 c3 -22 5 -41 6 -43 0 -2 10 -2 22 0 25 4 37 28 14 28 -9
0 -16 6 -16 14 0 7 -7 20 -16 27 -15 12 -16 9 -10 -26z"/>
<path d="M3485 4900 c-8 -12 20 -24 35 -15 5 3 10 10 10 16 0 12 -37 12 -45
-1z"/>
<path d="M290 4886 c0 -2 7 -9 15 -16 12 -10 15 -10 15 4 0 9 -7 16 -15 16 -8
0 -15 -2 -15 -4z"/>
<path d="M101 4831 c-7 -5 -11 -15 -9 -22 3 -10 8 -7 17 9 13 24 12 26 -8 13z"/>
<path d="M25 4790 c3 -5 8 -10 11 -10 2 0 4 5 4 10 0 6 -5 10 -11 10 -5 0 -7
-4 -4 -10z"/>
<path d="M2603 4770 c1 -11 5 -20 9 -20 4 0 8 9 8 20 0 11 -4 20 -9 20 -6 0
-9 -9 -8 -20z"/>
<path d="M489 4766 c-2 -3 -30 -6 -62 -7 -56 -2 -59 -4 -73 -38 -21 -51 -57
-101 -72 -101 -7 0 -17 -12 -22 -26 -16 -41 -43 -70 -62 -66 -11 2 -18 -3 -18
-11 0 -20 39 -67 56 -67 8 0 14 -8 14 -19 0 -10 10 -31 22 -46 12 -16 23 -36
23 -44 1 -9 2 -30 3 -48 1 -18 13 -44 26 -59 l23 -28 29 19 c47 30 56 43 49
67 -12 39 -46 88 -61 88 -16 0 -19 16 -4 25 6 4 8 21 4 40 -3 20 -1 35 6 40 8
5 8 10 -1 21 -6 8 -9 25 -7 39 5 24 4 25 -30 19 -34 -7 -35 -6 -28 22 12 45
43 57 81 30 14 -9 33 -12 60 -7 36 6 40 9 40 36 0 17 3 35 6 40 20 33 18 101
-2 81z m-159 -446 c0 -5 -2 -10 -4 -10 -3 0 -8 5 -11 10 -3 6 -1 10 4 10 6 0
11 -4 11 -10z"/>
<path d="M770 4750 c0 -19 11 -26 23 -14 8 8 -3 34 -14 34 -5 0 -9 -9 -9 -20z"/>
<path d="M2705 4730 c3 -5 8 -10 11 -10 2 0 4 5 4 10 0 6 -5 10 -11 10 -5 0
-7 -4 -4 -10z"/>
<path d="M762 4675 c-24 -30 -30 -69 -10 -63 25 9 51 55 41 73 -9 15 -12 14
-31 -10z"/>
<path d="M1500 4610 c-8 -6 -27 -7 -42 -4 -24 5 -28 2 -28 -18 -1 -13 -13 -51
-28 -85 -22 -50 -38 -70 -89 -108 -68 -51 -103 -92 -103 -122 0 -11 -8 -27
-18 -37 -16 -14 -18 -24 -11 -67 7 -42 5 -56 -11 -78 -10 -14 -21 -42 -24 -62
-6 -32 -3 -40 23 -61 23 -20 46 -27 117 -33 49 -5 121 -8 161 -7 60 2 78 -1
117 -23 59 -33 76 -32 109 10 21 26 24 35 12 35 -23 0 -18 23 10 50 17 16 23
30 19 45 -3 14 0 24 9 28 25 9 -2 166 -36 211 -16 20 -32 36 -37 36 -5 0 -31
19 -58 43 -26 24 -61 48 -78 55 -16 7 -35 26 -43 43 -11 26 -11 32 3 48 9 10
16 27 16 38 0 11 9 32 21 47 21 26 16 34 -11 16z m-66 -526 c18 -7 22 -34 4
-34 -6 0 -9 -3 -5 -6 3 -4 0 -13 -8 -20 -18 -19 -31 -18 -15 1 11 13 8 15 -13
15 -34 0 -45 19 -22 37 21 14 35 16 59 7z m-122 -64 c18 -32 7 -50 -17 -30
-15 13 -21 60 -7 60 4 0 15 -13 24 -30z"/>
<path d="M2532 4593 c4 -22 48 -31 48 -10 0 14 -20 27 -42 27 -5 0 -8 -8 -6
-17z"/>
<path d="M760 4564 c0 -12 7 -27 15 -34 24 -20 26 -7 5 25 -18 27 -20 28 -20
9z"/>
<path d="M3116 4523 c-3 -4 -25 -9 -49 -12 -30 -4 -45 -12 -51 -27 -7 -15 -19
-21 -48 -22 -21 -1 -38 3 -38 8 0 6 6 10 13 10 8 0 7 4 -3 10 -21 14 -33 12
-24 -2 5 -8 1 -8 -10 1 -30 25 -68 23 -97 -5 -14 -14 -41 -27 -59 -29 -19 -3
-38 -9 -44 -15 -5 -5 -18 -10 -28 -10 -9 0 -33 -9 -53 -20 -19 -11 -38 -20
-43 -21 -20 -5 -51 -32 -56 -52 -5 -21 -6 -21 -19 -3 -17 23 -87 32 -116 16
-11 -5 -22 -19 -26 -30 -4 -12 -21 -24 -46 -30 -21 -6 -39 -17 -39 -24 0 -8
-7 -16 -15 -20 -18 -6 -20 -37 -4 -53 9 -9 8 -16 -5 -28 -9 -9 -21 -26 -27
-37 -10 -19 -12 -19 -45 16 -38 40 -59 47 -51 16 3 -11 -3 -30 -14 -44 -23
-29 -24 -36 -4 -36 26 0 17 -37 -10 -44 -14 -4 -25 -13 -25 -21 0 -20 -41 -59
-78 -74 -17 -7 -34 -22 -37 -32 -10 -30 -37 -40 -79 -28 -37 10 -46 28 -22 48
7 6 11 22 9 35 l-5 24 -33 -19 c-43 -26 -65 -51 -48 -56 7 -2 29 -18 50 -34
25 -21 47 -30 68 -28 58 3 126 -39 84 -53 -6 -2 -13 -16 -14 -30 -2 -15 -6
-31 -9 -36 -3 -6 1 -12 9 -16 19 -7 19 -26 0 -40 -8 -6 -17 -22 -20 -35 -2
-12 -9 -29 -16 -37 -8 -10 -8 -14 0 -14 6 0 11 -7 11 -15 0 -9 11 -21 25 -27
18 -8 24 -16 19 -27 -4 -9 -7 -25 -7 -36 -1 -11 -6 -23 -11 -27 -7 -5 -8 -11
-1 -15 16 -13 17 -43 2 -43 -8 0 -17 -9 -20 -20 -3 -11 -1 -20 4 -20 5 0 0 -9
-11 -20 -25 -25 -25 -50 -2 -92 11 -20 16 -41 12 -52 -9 -28 0 -109 13 -119 9
-6 9 -10 1 -13 -7 -3 -10 -14 -7 -24 4 -14 0 -20 -10 -20 -19 0 -31 -16 -22
-30 5 -8 11 -8 19 -1 16 14 70 -44 62 -65 -3 -7 4 -22 15 -33 11 -10 21 -28
22 -39 0 -11 5 -20 10 -19 5 1 10 -13 12 -30 1 -18 -1 -33 -5 -33 -5 0 -6 -9
-3 -19 5 -19 -24 -70 -40 -71 -5 0 -5 5 -1 11 4 7 1 10 -7 7 -7 -2 -22 4 -33
14 -11 10 -30 18 -42 18 -12 0 -24 7 -28 15 -3 8 -16 15 -30 15 -23 0 -24 -2
-15 -32 6 -21 5 -45 -3 -69 -12 -40 -11 -42 66 -131 8 -9 32 -20 52 -24 21 -4
50 -18 64 -31 14 -13 37 -31 53 -39 15 -8 27 -19 27 -23 0 -5 2 -15 5 -23 3
-7 1 -19 -4 -27 -8 -12 -12 -12 -25 -2 -10 8 -51 13 -118 14 -103 2 -103 2
-106 -23 -1 -14 -8 -45 -14 -68 -11 -42 -13 -44 -41 -38 -42 8 -55 22 -67 67
-5 22 -15 57 -21 80 -12 46 -82 129 -109 129 -10 0 -23 -13 -31 -32 -14 -32
-15 -38 -18 -58 -2 -21 -27 -9 -39 20 -8 16 -20 30 -28 30 -8 0 -32 11 -52 25
-20 14 -43 25 -50 25 -22 0 -61 -31 -56 -45 4 -9 -7 -15 -35 -20 -38 -6 -41
-9 -41 -40 0 -43 -15 -84 -42 -112 -15 -16 -23 -40 -26 -78 -2 -30 -8 -55 -13
-55 -22 0 -6 -37 24 -57 60 -42 131 -39 96 3 -11 13 -8 19 14 37 19 16 26 29
23 49 -3 22 1 28 15 28 13 0 19 7 19 23 0 13 4 27 9 33 5 5 6 30 2 56 l-8 46
45 4 c37 3 47 0 63 -21 25 -32 33 -65 21 -88 -5 -10 -12 -38 -16 -62 -7 -45
-7 -45 14 -26 17 16 24 16 44 5 13 -7 29 -9 35 -5 13 7 101 -79 101 -98 0 -7
-5 -18 -12 -25 -15 -15 -2 -19 85 -26 81 -6 101 7 111 76 5 33 14 50 36 66 48
36 82 29 127 -23 35 -41 42 -45 65 -36 37 14 46 66 15 92 -12 10 -25 18 -28
19 -20 1 -14 31 11 58 l28 31 10 -42 c6 -23 14 -71 17 -107 4 -36 14 -91 23
-124 16 -58 16 -58 -8 -76 -15 -12 -20 -22 -14 -31 4 -8 16 -41 25 -74 l16
-60 44 -1 c24 -1 62 -6 84 -11 39 -9 40 -9 17 -22 -27 -14 -22 -25 11 -26 21
0 33 -26 56 -128 9 -36 7 -40 -20 -56 -40 -25 -67 -61 -80 -113 -11 -39 -10
-56 5 -114 30 -114 33 -108 -59 -115 -44 -3 -95 -11 -113 -18 -18 -7 -38 -11
-46 -8 -7 3 -33 -1 -57 -10 -29 -9 -59 -12 -87 -8 -34 5 -48 3 -62 -10 -22
-20 -63 -14 -93 13 -16 14 -20 14 -47 -6 -33 -25 -50 -26 -100 -8 -29 11 -40
11 -67 -2 -18 -9 -33 -20 -33 -24 0 -5 16 -25 35 -44 20 -20 38 -49 42 -65 7
-36 54 -53 92 -33 16 8 32 9 47 4 30 -12 57 -2 49 18 -7 19 12 42 36 42 13 0
19 7 19 24 0 26 16 36 61 36 17 0 39 5 51 11 28 15 57 5 101 -36 21 -19 47
-35 58 -35 10 0 19 -4 19 -8 0 -15 -88 -127 -125 -160 -33 -28 -60 -42 -163
-83 -13 -5 -31 -9 -41 -9 -11 0 -21 -6 -24 -13 -2 -6 -28 -21 -57 -31 l-53
-19 -18 22 c-12 14 -34 25 -59 28 -31 4 -41 11 -45 27 -13 66 -15 95 -5 101
12 7 14 45 2 45 -4 0 -13 -5 -18 -10 -17 -17 -44 0 -44 26 0 19 5 24 24 24 33
0 44 20 20 37 -13 10 -19 26 -19 56 l0 42 -45 3 c-65 5 -82 38 -30 60 17 8 30
17 30 22 0 4 -13 10 -30 13 -16 4 -30 13 -30 20 0 8 -9 22 -20 32 -26 24 -61
13 -83 -26 -17 -31 -18 -31 -37 -14 -11 10 -20 22 -20 27 0 5 -7 16 -15 24 -8
8 -12 21 -9 29 7 18 -26 35 -52 25 -13 -5 -24 -21 -28 -40 -4 -23 -10 -31 -21
-26 -10 4 -20 -5 -30 -27 -7 -18 -32 -52 -55 -76 l-41 -44 -30 29 c-41 39 -65
84 -49 94 9 6 9 12 -1 29 -15 23 -47 26 -132 12 -26 -4 -50 -4 -53 1 -3 4 -1
8 4 8 6 0 14 17 19 38 6 27 14 38 31 40 12 2 22 10 22 19 0 12 -7 14 -29 10
-15 -3 -33 -1 -40 6 -8 8 -14 8 -23 -1 -7 -7 -16 -12 -20 -12 -11 0 -10 38 2
60 13 24 -16 36 -39 16 -9 -7 -26 -17 -38 -20 -13 -4 -23 -15 -23 -23 0 -9 -7
-24 -16 -34 -12 -14 -13 -22 -4 -39 9 -18 8 -25 -6 -41 -16 -18 -18 -17 -56
22 -24 25 -37 46 -34 55 3 9 10 13 14 10 14 -8 95 71 89 87 -7 17 -120 64
-124 51 -2 -5 -12 -22 -23 -39 -11 -16 -24 -37 -28 -45 -5 -8 -14 -24 -20 -35
-45 -78 -44 -73 -22 -95 24 -24 27 -70 5 -70 -8 0 -32 16 -54 35 -25 23 -47
34 -62 33 -21 -3 -24 1 -21 25 2 21 -1 27 -16 27 -11 0 -25 -7 -32 -15 -15
-18 -37 -19 -43 -2 -3 6 -6 -1 -6 -17 -1 -24 -3 -27 -16 -16 -8 7 -15 25 -15
40 0 17 -5 27 -15 27 -19 0 -19 -14 0 -50 16 -32 13 -38 -37 -70 -16 -10 -29
-13 -33 -7 -9 15 -25 12 -25 -5 0 -9 11 -27 24 -40 23 -23 23 -24 5 -44 -23
-25 -26 -73 -4 -65 8 4 15 1 15 -5 0 -15 35 -14 48 2 9 10 8 19 -2 33 -17 25
-4 64 22 64 11 0 25 7 32 15 16 19 29 19 51 -1 15 -14 23 -14 56 -3 21 7 46
19 55 27 16 14 38 9 38 -8 0 -5 -10 -12 -22 -16 -24 -7 -65 -44 -50 -44 14 0
65 -70 58 -78 -4 -3 -15 -1 -26 5 -14 10 -19 9 -24 -2 -6 -18 3 -24 99 -67 88
-39 122 -41 165 -9 25 18 30 18 48 5 16 -11 31 -12 61 -5 22 5 42 7 45 4 2 -3
16 3 30 12 14 9 29 14 34 11 6 -3 47 -1 92 5 64 9 87 8 106 -1 18 -10 29 -10
53 -1 36 16 62 8 107 -31 37 -33 43 -49 16 -45 -29 4 -28 -17 1 -31 29 -14 28
-32 -1 -32 -9 0 -25 -12 -35 -25 -15 -20 -15 -28 -5 -44 11 -18 8 -25 -30 -62
-34 -32 -52 -42 -83 -43 -21 -1 -40 3 -42 8 -2 6 -10 -9 -17 -34 -7 -25 -14
-51 -16 -57 -6 -22 -37 -14 -60 15 l-23 27 -23 -23 c-13 -13 -17 -22 -9 -22 9
0 11 -9 6 -30 -6 -26 -4 -30 14 -30 11 0 23 -5 27 -11 7 -12 -15 -31 -28 -23
-23 15 -24 -12 -2 -53 28 -54 27 -63 -5 -29 -20 21 -27 23 -49 15 -22 -9 -30
-7 -43 10 -10 12 -24 21 -32 21 -14 0 -14 -3 -1 -30 9 -16 13 -38 9 -49 -4
-14 3 -25 26 -42 30 -21 32 -21 25 -3 -27 64 -16 69 46 23 40 -28 43 -29 55
-13 7 10 13 21 13 24 0 4 12 12 28 19 l27 13 -32 27 c-30 25 -32 29 -20 54 14
30 32 35 45 11 7 -13 13 -12 40 11 26 22 30 30 22 46 -11 20 3 28 16 8 4 -7
20 -9 39 -6 25 4 35 1 39 -10 9 -23 -14 -45 -41 -40 -13 2 -31 -4 -43 -15 -26
-24 -25 -38 2 -38 21 0 21 0 2 -14 -10 -8 -16 -18 -12 -22 11 -10 -39 -54 -62
-54 -11 0 -29 -11 -42 -24 -27 -29 -78 -57 -90 -50 -4 3 -9 17 -9 32 -1 15 -3
20 -6 11 -5 -21 -62 -23 -85 -2 -10 9 -18 26 -18 39 0 17 -6 23 -27 26 -16 2
-32 12 -38 24 -6 12 -17 29 -24 38 -11 14 -11 16 3 16 9 0 16 5 16 10 0 6 7
10 16 10 13 0 11 5 -7 31 -16 22 -27 29 -42 25 -14 -3 -28 3 -44 20 -21 22
-25 24 -38 10 -21 -21 -19 -36 6 -36 18 0 20 -4 14 -30 -4 -19 -3 -30 4 -30 6
0 11 -7 11 -15 0 -19 -9 -19 -34 0 -26 19 -47 19 -40 0 4 -8 10 -12 15 -9 5 3
9 -4 9 -16 0 -11 -6 -23 -14 -26 -13 -5 -23 -29 -32 -74 -2 -8 1 -22 6 -30 9
-13 11 -13 19 -1 12 19 41 6 41 -17 0 -10 -11 -24 -25 -30 -26 -12 -32 -26
-15 -37 12 -8 49 16 52 34 3 13 5 12 18 -1 15 -15 20 -112 6 -125 -3 -4 -6
-17 -6 -30 0 -17 6 -23 22 -23 21 0 21 -1 5 -17 -16 -16 -19 -14 -56 26 -24
26 -44 40 -51 36 -9 -5 -10 -1 -6 12 4 12 1 25 -9 33 -8 7 -15 19 -15 26 0 15
-56 48 -69 40 -12 -8 -51 23 -51 40 0 8 8 14 19 14 11 0 21 9 25 23 9 35 8 37
-24 37 -23 0 -30 -4 -30 -20 0 -20 -1 -20 -30 -5 -27 14 -30 14 -30 0 0 -9 7
-18 15 -21 22 -9 7 -26 -16 -19 -11 4 -19 2 -19 -4 0 -6 5 -11 10 -11 6 0 10
-9 10 -21 0 -11 5 -29 10 -40 8 -15 7 -19 -4 -19 -8 0 -18 5 -21 10 -8 12 -38
13 -33 1 4 -13 110 -91 123 -91 6 0 18 -9 27 -19 14 -17 15 -20 1 -25 -8 -3
-19 -4 -24 0 -5 3 -9 -2 -9 -11 0 -21 -24 -29 -48 -16 -12 7 -22 7 -29 0 -14
-14 -39 -2 -58 27 -8 13 -23 24 -31 24 -14 0 -14 -2 -3 -16 12 -14 11 -16 -6
-12 -11 2 -19 9 -18 15 2 8 -6 9 -25 3 -39 -11 -45 -13 -61 -11 -11 1 -11 5 2
19 22 24 21 32 -3 32 -19 0 -20 -6 -19 -112 0 -92 2 -108 11 -88 11 25 11 25
15 3 4 -22 8 -23 107 -23 92 0 162 12 176 30 9 11 82 29 96 23 8 -3 21 0 29 7
22 19 70 9 70 -15 0 -16 -8 -21 -40 -25 -30 -4 -35 -7 -22 -13 10 -4 1040 -7
2288 -7 l2269 0 0 204 0 204 -30 57 c-16 31 -30 63 -30 70 0 7 -6 18 -13 24
-17 14 -42 -10 -58 -57 -7 -21 -18 -32 -31 -32 -25 0 -128 47 -128 59 0 4 -19
11 -43 13 -23 3 -58 12 -77 20 -19 9 -54 21 -78 28 -23 8 -65 28 -91 45 -27
18 -64 35 -83 38 -93 15 -171 36 -184 49 -13 12 -11 22 12 73 15 33 32 94 38
136 l10 77 39 6 c60 10 79 23 75 54 -4 39 -52 43 -85 8 -31 -34 -48 -25 -68
37 -30 94 -68 146 -152 208 -51 38 -83 49 -83 29 0 -5 -4 -10 -10 -10 -5 0
-10 10 -10 23 0 26 -21 77 -32 77 -5 0 -8 27 -8 59 0 50 -4 62 -22 75 l-21 15
27 11 c15 5 24 14 21 20 -3 5 3 10 15 10 19 0 20 2 6 15 -8 8 -21 15 -28 15
-9 0 -10 3 -2 8 17 11 26 49 14 57 -5 3 -10 16 -10 27 0 29 -63 159 -86 179
-11 9 -39 27 -64 41 -25 15 -80 61 -122 104 -43 43 -80 76 -83 73 -2 -3 0 -31
5 -63 6 -38 6 -65 -1 -80 -10 -21 -15 -23 -51 -14 -22 5 -49 13 -60 19 -14 8
-23 8 -31 0 -24 -24 -95 -9 -186 38 -33 17 -50 115 -31 181 5 19 9 55 9 80 0
25 -1 61 -1 80 0 19 6 62 15 95 8 33 17 104 18 157 l3 97 -37 54 c-34 49 -43
55 -104 75 -45 14 -96 21 -152 22 -46 0 -88 3 -93 7 -16 9 -138 11 -189 4 -66
-11 -86 12 -81 89 1 14 2 36 2 50 0 14 11 38 25 54 14 16 25 35 25 41 0 7 18
25 41 40 54 38 72 75 70 149 -1 70 14 120 50 159 14 16 32 52 40 79 9 36 20
53 37 59 13 5 21 13 18 18 -3 5 4 15 17 23 39 26 110 37 212 36 56 -1 106 2
113 6 7 4 27 4 45 0 35 -8 67 -7 176 4 52 5 78 4 91 -5 33 -23 103 -43 116
-32 13 10 73 7 92 -5 7 -4 12 -14 12 -22 0 -8 3 -13 8 -13 22 4 42 -2 37 -11
-4 -6 5 -8 22 -4 21 4 31 0 41 -16 10 -17 10 -21 -4 -27 -12 -4 -13 -8 -3 -14
7 -4 14 -15 15 -24 5 -31 13 -45 29 -45 8 0 15 -3 15 -7 0 -5 14 -22 30 -40
17 -18 30 -37 30 -43 0 -6 3 -9 8 -6 13 8 81 -93 75 -113 -3 -13 -10 -18 -21
-14 -12 5 -14 2 -8 -13 5 -10 10 -28 13 -39 3 -11 7 -27 10 -35 8 -20 13 -40
17 -67 1 -12 7 -28 13 -35 18 -23 24 -51 13 -58 -10 -6 14 -62 41 -96 31 -38
71 -344 69 -524 -1 -119 7 -210 20 -210 21 0 70 92 70 132 0 31 -29 78 -55 88
-30 11 -32 35 -6 50 32 16 47 2 71 -63 l23 -62 15 32 c12 25 13 43 6 80 -9 44
-7 50 16 72 17 16 19 22 8 18 -10 -4 -20 -2 -23 3 -4 6 3 10 15 10 12 0 19 4
15 10 -4 6 -15 6 -30 0 -16 -6 -25 -6 -25 0 0 6 9 10 20 10 21 0 27 24 9 36
-8 4 -7 9 2 15 11 7 10 9 -4 9 -17 0 -17 1 0 28 9 15 27 39 41 53 13 15 23 35
21 45 -1 11 3 32 9 47 13 32 0 62 -29 70 -12 3 -16 11 -12 26 3 12 1 27 -5 34
-5 6 -9 24 -7 38 2 14 -1 32 -5 39 -5 8 0 24 12 41 11 15 21 39 21 53 0 15 6
28 17 31 10 3 17 11 17 18 -2 56 4 90 14 80 14 -14 87 2 111 24 27 24 22 42
-14 58 -46 20 -68 39 -68 59 0 9 -4 16 -9 16 -5 0 -4 19 0 43 21 100 21 107 8
123 -7 9 -14 37 -15 62 -2 26 -8 70 -14 97 -6 28 -12 59 -14 70 -1 11 -9 21
-17 23 -8 1 -20 16 -26 32 -6 17 -22 34 -36 39 -29 11 -44 48 -28 64 26 26 5
74 -39 90 -10 4 -8 6 7 6 33 1 37 18 5 25 -56 14 -79 30 -91 62 -10 26 -19 35
-47 40 -19 3 -34 12 -34 20 0 7 -18 18 -40 24 -26 7 -55 27 -86 60 -26 28 -53
50 -59 50 -7 0 -31 22 -54 49 -37 43 -47 49 -92 55 -28 4 -56 3 -62 -2 -18
-14 -112 -25 -148 -17 -23 5 -28 9 -18 16 12 8 12 11 -1 19 -8 5 -12 10 -8 10
4 0 -5 13 -20 28 -25 26 -50 33 -37 11 4 -5 -4 -9 -16 -9 -18 0 -20 3 -11 12
7 7 12 14 12 18 0 3 -50 5 -110 6 -99 0 -110 -1 -105 -16 4 -14 0 -16 -20 -12
-17 3 -24 9 -21 18 4 10 -2 12 -23 8 -16 -4 -32 -1 -35 5 -8 12 -29 15 -40 4z
m19 -33 c3 -5 1 -10 -4 -10 -6 0 -11 5 -11 10 0 6 2 10 4 10 3 0 8 -4 11 -10z
m-100 -20 c3 -5 1 -10 -4 -10 -6 0 -11 5 -11 10 0 6 2 10 4 10 3 0 8 -4 11
-10z m1262 -502 c-3 -8 -6 -5 -6 6 -1 11 2 17 5 13 3 -3 4 -12 1 -19z m-2322
-728 c3 -5 1 -10 -4 -10 -6 0 -11 5 -11 10 0 6 2 10 4 10 3 0 8 -4 11 -10z
m2423 -424 c-2 -19 -7 -23 -17 -17 -9 6 -12 18 -7 36 9 35 29 19 24 -19z m-23
-66 c-3 -5 -10 -10 -16 -10 -5 0 -9 5 -9 10 0 6 7 10 16 10 8 0 12 -4 9 -10z
m-2335 -119 c0 -11 6 -22 13 -25 6 -3 1 -4 -13 -3 -29 2 -44 47 -16 47 9 0 16
-8 16 -19z m60 -25 c0 -3 -4 -8 -10 -11 -5 -3 -10 -1 -10 4 0 6 5 11 10 11 6
0 10 -2 10 -4z m920 -287 c0 -34 -22 -113 -36 -129 -7 -9 -26 -41 -41 -71 -15
-30 -37 -66 -48 -80 -20 -24 -99 -69 -124 -69 -24 0 -96 39 -120 64 -14 14
-33 26 -43 26 -10 0 -21 8 -24 18 -3 9 -10 25 -15 35 -6 11 -6 17 1 17 5 0 10
5 10 12 0 7 12 24 27 40 l26 27 -26 10 c-34 13 -34 31 -1 55 21 14 49 19 146
23 67 2 129 8 139 13 10 6 33 10 51 10 18 0 40 5 48 10 23 15 30 12 30 -11z
m-1390 -9 c0 -5 -4 -10 -10 -10 -5 0 -10 5 -10 10 0 6 5 10 10 10 6 0 10 -4
10 -10z m-360 -161 c0 -6 -4 -7 -10 -4 -5 3 -10 11 -10 16 0 6 5 7 10 4 6 -3
10 -11 10 -16z m-30 1 c0 -5 -2 -10 -4 -10 -3 0 -8 5 -11 10 -3 6 -1 10 4 10
6 0 11 -4 11 -10z m2414 -262 c87 -94 130 -168 109 -189 -8 -8 -17 -8 -31 0
-16 8 -23 8 -29 -1 -33 -52 -117 -76 -184 -53 -48 17 -105 19 -178 5 -42 -8
-58 -7 -82 6 -17 8 -29 20 -27 26 2 5 26 18 53 27 43 15 50 21 53 46 2 16 19
47 38 69 19 22 34 43 34 47 0 4 13 12 29 17 17 6 41 28 56 51 39 63 58 57 159
-51z m30 -371 c16 -60 -4 -109 -52 -127 -24 -8 -41 -9 -60 -1 -15 6 -64 19
-109 30 -45 11 -91 28 -102 38 -12 10 -27 18 -34 19 -6 1 -23 5 -36 9 -42 14
79 45 199 52 58 3 111 9 119 13 22 12 68 -9 75 -33z m16 -179 c0 -10 7 -18 15
-18 8 0 15 -4 15 -10 0 -5 8 -10 18 -10 14 0 15 -2 2 -10 -8 -5 -10 -10 -4
-10 22 0 21 -37 -2 -75 -13 -21 -21 -42 -18 -46 2 -4 -16 -25 -41 -45 -43 -36
-49 -38 -124 -41 -66 -3 -85 0 -115 18 -19 11 -38 29 -41 40 -8 23 19 69 39
69 7 0 19 7 26 15 7 8 32 25 56 37 28 13 43 27 40 35 -3 7 0 13 8 13 7 0 23
11 36 25 17 18 29 23 48 18 23 -5 24 -4 18 23 -7 28 -7 28 8 9 8 -11 16 -28
16 -37z m-3041 1 c9 -21 11 -49 7 -88 -6 -56 -6 -58 29 -94 43 -44 31 -50 -14
-8 -18 16 -39 31 -49 33 -9 2 -22 14 -29 28 -10 21 -13 22 -18 7 -6 -13 -18
-16 -61 -14 -30 1 -54 3 -54 4 0 1 12 19 26 40 29 44 63 57 92 37 18 -12 21
-11 33 18 7 17 12 40 12 50 -2 28 11 21 26 -13z m1704 -124 c7 -16 -8 -29 -23
-20 -10 6 -2 35 10 35 4 0 10 -7 13 -15z m-1421 -50 c1 -5 -10 -14 -25 -19
-31 -11 -53 3 -44 27 6 17 67 10 69 -8z m2876 -31 c-6 -21 -11 -43 -9 -48 1
-5 -3 -12 -9 -16 -7 -4 -13 -19 -13 -34 -1 -14 -5 -26 -9 -26 -5 0 -7 -3 -7
-7 1 -5 0 -11 -1 -15 -1 -5 -3 -11 -5 -15 -1 -5 -4 -15 -8 -23 -3 -8 -12 -37
-20 -65 -10 -37 -19 -51 -34 -53 -26 -4 -38 43 -19 73 7 11 12 41 10 66 -1 27
4 59 12 75 14 28 115 137 121 131 1 -2 -3 -21 -9 -43z m-2351 -164 c-1 -36 -3
-39 -25 -35 -14 2 -33 12 -43 21 -17 16 -19 16 -19 1 0 -11 -5 -14 -17 -10
-33 12 -44 25 -32 39 14 17 50 14 73 -8 27 -24 36 -23 36 7 0 15 6 25 14 25
11 0 15 -11 13 -40z m-169 -54 c3 -12 -1 -17 -14 -14 -9 1 -18 11 -20 21 -3
24 30 18 34 -7z m-128 -66 c0 -5 -2 -10 -4 -10 -3 0 -8 5 -11 10 -3 6 -1 10 4
10 6 0 11 -4 11 -10z m85 -75 c1 -37 -3 -49 -16 -52 -23 -6 -47 -78 -41 -125
4 -35 3 -37 -31 -43 -20 -4 -40 -4 -46 0 -14 8 -14 55 0 55 18 0 0 53 -24 72
-12 10 -17 18 -11 18 6 0 17 14 24 31 9 21 19 30 34 28 63 -4 69 -1 63 35 -7
41 -2 47 26 37 18 -7 22 -17 22 -56z m117 17 l18 -30 -33 3 c-24 2 -33 8 -35
24 -9 59 17 61 50 3z m185 -11 c-3 -14 2 -21 19 -25 26 -7 33 -36 9 -36 -8 0
-30 8 -50 17 -25 12 -35 23 -35 40 0 19 5 23 31 23 26 0 30 -3 26 -19z m-196
-127 c10 -13 10 -17 -2 -25 -34 -21 -72 4 -46 30 15 15 32 14 48 -5z m-71 -39
c0 -7 -7 -15 -15 -19 -15 -5 -22 24 -9 37 9 9 24 -2 24 -18z m-719 -114 l17
-40 -21 8 c-29 11 -50 51 -35 68 13 16 17 13 39 -36z m93 -60 c3 -4 1 -13 -4
-20 -6 -11 -13 -10 -34 6 -14 11 -23 23 -20 25 6 7 53 -2 58 -11z m-371 -106
c7 -18 -6 -27 -27 -19 -17 7 -20 16 -9 27 11 12 31 8 36 -8z m97 -155 c0 -5
-4 -10 -9 -10 -6 0 -13 5 -16 10 -3 6 1 10 9 10 9 0 16 -4 16 -10z m3690 -31
c0 -5 -4 -9 -10 -9 -5 0 -10 7 -10 16 0 8 5 12 10 9 6 -3 10 -10 10 -16z m15
-99 c-3 -5 -10 -10 -16 -10 -5 0 -9 5 -9 10 0 6 7 10 16 10 8 0 12 -4 9 -10z
m-3898 -6 c-3 -3 -12 -4 -19 -1 -8 3 -5 6 6 6 11 1 17 -2 13 -5z"/>
<path d="M3690 859 c0 -5 5 -7 10 -4 6 3 10 8 10 11 0 2 -4 4 -10 4 -5 0 -10
-5 -10 -11z"/>
<path d="M3934 4495 c-8 -33 12 -57 45 -53 33 4 38 31 12 57 -28 28 -49 26
-57 -4z"/>
<path d="M98 4363 c7 -3 16 -2 19 1 4 3 -2 6 -13 5 -11 0 -14 -3 -6 -6z"/>
<path d="M4600 4293 c0 -4 14 -17 30 -28 16 -11 30 -28 30 -37 0 -20 -44 -53
-59 -44 -5 4 -13 1 -16 -5 -16 -25 86 -92 115 -74 33 20 -35 186 -79 193 -12
2 -21 0 -21 -5z"/>
<path d="M95 4270 c3 -5 13 -10 21 -10 8 0 14 -7 14 -15 0 -16 16 -20 24 -6 3
5 -5 16 -19 25 -27 18 -49 21 -40 6z"/>
<path d="M46 4163 c-9 -10 35 -53 55 -53 9 0 20 7 23 16 9 23 8 24 -15 24 -11
0 -28 4 -38 10 -10 5 -21 6 -25 3z"/>
<path d="M370 4140 c0 -5 5 -10 10 -10 6 0 10 5 10 10 0 6 -4 10 -10 10 -5 0
-10 -4 -10 -10z"/>
<path d="M1060 4049 c0 -5 5 -7 10 -4 6 3 10 8 10 11 0 2 -4 4 -10 4 -5 0 -10
-5 -10 -11z"/>
<path d="M4346 4021 c-17 -19 -17 -20 3 -30 46 -25 66 -7 33 30 -18 19 -19 19
-36 0z"/>
<path d="M390 4022 c0 -18 59 -64 74 -59 22 9 20 24 -4 32 -11 3 -20 13 -20
21 0 8 -10 14 -25 14 -14 0 -25 -4 -25 -8z"/>
<path d="M1880 4020 c0 -5 5 -10 10 -10 6 0 10 5 10 10 0 6 -4 10 -10 10 -5 0
-10 -4 -10 -10z"/>
<path d="M0 3981 c0 -24 22 -28 40 -6 8 9 8 15 2 15 -6 0 -17 3 -26 6 -12 4
-16 0 -16 -15z"/>
<path d="M495 3937 c-11 -7 -21 -13 -23 -14 -2 0 3 -10 10 -22 14 -23 38 -27
56 -9 9 9 12 8 12 -5 0 -10 -7 -20 -15 -23 -8 -4 -15 -9 -15 -13 0 -10 60 1
84 15 18 11 17 13 -13 42 -18 17 -39 28 -47 25 -8 -3 -14 0 -14 6 0 14 -9 13
-35 -2z"/>
<path d="M748 3923 c7 -3 16 -2 19 1 4 3 -2 6 -13 5 -11 0 -14 -3 -6 -6z"/>
<path d="M50 3870 c-14 -4 -20 -9 -15 -10 50 -8 66 -8 63 2 -6 16 -18 17 -48
8z"/>
<path d="M780 3831 c0 -10 40 -22 52 -15 18 11 6 24 -22 24 -16 0 -30 -4 -30
-9z"/>
<path d="M117 3819 c7 -7 15 -10 18 -7 3 3 -2 9 -12 12 -14 6 -15 5 -6 -5z"/>
<path d="M595 3800 c-9 -15 3 -30 24 -30 25 0 33 11 20 27 -13 15 -35 17 -44
3z"/>
<path d="M1105 3770 c-10 -16 4 -47 23 -52 9 -3 39 -2 66 1 41 5 47 8 34 18
-14 12 -92 43 -109 43 -4 0 -11 -5 -14 -10z"/>
<path d="M1650 3751 c0 -12 13 -20 50 -31 44 -12 48 8 6 25 -41 17 -56 19 -56
6z"/>
<path d="M783 3688 c-21 -27 -21 -45 -1 -57 25 -16 40 0 36 38 -3 28 -21 37
-35 19z"/>
<path d="M617 3533 c-4 -3 -7 -13 -7 -22 1 -13 2 -13 11 2 6 9 14 15 20 12 5
-4 9 -1 9 4 0 12 -23 15 -33 4z"/>
<path d="M703 3475 c-38 -16 -42 -36 -11 -67 21 -21 21 -21 29 -1 10 28 41 38
55 19 17 -25 27 -19 20 12 -7 27 -31 52 -50 52 -6 -1 -26 -7 -43 -15z"/>
<path d="M450 3425 c0 -9 -7 -18 -15 -21 -8 -4 -15 -11 -15 -16 0 -9 -28 -76
-37 -87 -1 -2 -9 2 -17 8 -12 10 -16 8 -21 -8 -7 -23 3 -71 16 -71 5 0 9 8 9
19 0 10 7 24 15 31 20 16 51 8 47 -13 -2 -9 2 -17 7 -17 6 0 18 -16 27 -35 9
-19 23 -35 31 -35 8 0 22 -18 31 -40 9 -22 24 -42 33 -45 9 -3 19 -15 22 -25
4 -15 14 -20 39 -20 28 0 35 5 50 38 29 63 30 77 7 101 -12 12 -28 20 -35 17
-8 -3 -17 1 -20 9 -4 8 -18 15 -33 15 -15 0 -32 5 -39 12 -9 9 -16 7 -32 -7
-39 -35 -61 20 -35 88 4 10 0 28 -10 43 -12 19 -14 29 -5 39 12 15 6 35 -11
35 -5 0 -9 -7 -9 -15z"/>
<path d="M4804 3429 c-33 -9 -47 -29 -38 -53 5 -13 69 -37 107 -41 10 -1 39
-18 66 -38 26 -20 51 -37 55 -37 3 0 6 26 6 59 l0 58 -70 32 c-75 33 -79 34
-126 20z"/>
<path d="M1480 3420 c-13 -8 -13 -11 0 -23 8 -7 27 -19 43 -25 32 -14 37 0 11
36 -16 24 -31 27 -54 12z"/>
<path d="M100 3365 c7 -9 15 -13 17 -11 7 7 -7 26 -19 26 -6 0 -6 -6 2 -15z"/>
<path d="M765 3369 c-10 -15 3 -25 16 -12 7 7 7 13 1 17 -6 3 -14 1 -17 -5z"/>
<path d="M680 3334 c0 -8 5 -12 10 -9 6 4 8 11 5 16 -9 14 -15 11 -15 -7z"/>
<path d="M940 3218 c0 -8 -11 -25 -25 -38 -14 -13 -25 -32 -25 -42 0 -10 -7
-21 -16 -25 -8 -3 -13 -12 -9 -21 3 -8 0 -21 -7 -29 -10 -13 -8 -19 11 -34 26
-22 30 -22 51 -9 12 8 13 13 3 29 -11 17 -7 22 35 44 67 35 72 48 36 93 -33
41 -54 53 -54 32z"/>
<path d="M1107 3162 c-22 -24 -21 -35 2 -56 22 -20 27 -15 36 37 8 42 -9 51
-38 19z"/>
<path d="M300 3120 c0 -5 4 -10 9 -10 6 0 13 5 16 10 3 6 -1 10 -9 10 -9 0
-16 -4 -16 -10z"/>
<path d="M1354 3119 c-10 -17 23 -46 37 -32 7 7 9 19 6 27 -7 18 -33 21 -43 5z"/>
<path d="M1150 3071 c0 -4 11 -6 25 -3 14 2 25 6 25 8 0 2 -11 4 -25 4 -14 0
-25 -4 -25 -9z"/>
<path d="M1100 3052 c0 -14 11 -21 26 -15 21 8 17 23 -6 23 -11 0 -20 -4 -20
-8z"/>
<path d="M1191 3036 c-8 -10 -9 -16 -1 -21 13 -8 30 3 30 21 0 18 -14 18 -29
0z"/>
<path d="M260 2980 c0 -5 5 -10 10 -10 6 0 10 5 10 10 0 6 -4 10 -10 10 -5 0
-10 -4 -10 -10z"/>
<path d="M160 2953 c0 -5 7 -17 16 -28 13 -17 16 -18 24 -5 7 11 5 19 -7 28
-19 14 -33 16 -33 5z"/>
<path d="M538 2933 c7 -3 16 -2 19 1 4 3 -2 6 -13 5 -11 0 -14 -3 -6 -6z"/>
<path d="M790 2920 c0 -6 7 -10 15 -10 8 0 15 2 15 4 0 2 -7 6 -15 10 -8 3
-15 1 -15 -4z"/>
<path d="M247 2914 c-4 -4 -7 -14 -7 -23 0 -11 3 -12 11 -4 6 6 10 16 7 23 -2
6 -7 8 -11 4z"/>
<path d="M3705 2909 c-66 -4 -144 -13 -172 -19 -66 -14 -113 -57 -114 -103 0
-18 -2 -79 -4 -136 -2 -93 0 -109 21 -152 22 -43 33 -52 112 -91 81 -40 92
-43 169 -43 107 0 131 18 44 33 -45 7 -57 25 -21 30 11 2 20 8 20 14 0 5 7 8
15 5 8 -4 17 -2 20 3 4 6 15 10 25 10 10 0 25 7 34 15 8 8 19 15 24 15 5 0 15
7 22 15 7 8 23 15 37 15 33 0 63 17 63 36 0 8 7 17 15 20 22 9 18 49 -10 94
-32 50 -31 56 6 91 40 37 31 54 -58 106 -84 50 -98 52 -248 42z m145 -381 c0
-6 -30 -19 -57 -24 -6 -1 -10 4 -7 12 2 8 6 20 8 28 4 12 10 12 30 3 14 -7 26
-15 26 -19z"/>
<path d="M836 2884 c-9 -25 -9 -25 37 -23 24 2 48 -1 54 -4 7 -4 14 -3 18 3 6
10 -56 40 -85 40 -10 0 -21 -7 -24 -16z"/>
<path d="M621 2878 l-24 -8 28 -26 c26 -24 28 -24 46 -8 10 9 19 20 19 24 0
15 -46 27 -69 18z"/>
<path d="M110 2870 c0 -10 32 -30 50 -30 8 0 8 6 0 20 -11 20 -50 28 -50 10z"/>
<path d="M970 2830 c0 -11 39 -34 46 -27 6 6 -25 37 -37 37 -5 0 -9 -4 -9 -10z"/>
<path d="M606 2822 c-3 -6 -1 -14 5 -17 15 -10 25 3 12 16 -7 7 -13 7 -17 1z"/>
<path d="M10 2790 c0 -5 5 -10 10 -10 6 0 10 5 10 10 0 6 -4 10 -10 10 -5 0
-10 -4 -10 -10z"/>
<path d="M1342 2758 c3 -34 22 -45 47 -29 12 8 12 13 -3 35 -24 38 -48 34 -44
-6z"/>
<path d="M633 2762 c-6 -26 -7 -26 -38 -6 -16 10 -25 12 -25 5 0 -6 -12 -16
-26 -21 -35 -14 -20 -33 18 -24 27 5 30 4 23 -12 -16 -40 -16 -51 0 -58 17 -6
61 12 51 21 -3 4 0 13 7 21 10 13 9 15 -10 10 -30 -8 -29 10 1 21 30 12 39 36
20 52 -12 10 -16 9 -21 -9z"/>
<path d="M79 2743 c-13 -9 -28 -23 -32 -30 -11 -18 -27 -16 -27 2 0 8 -4 15
-10 15 -5 0 -10 -13 -10 -30 0 -42 23 -39 70 12 44 45 47 57 9 31z"/>
<path d="M493 2683 c-4 -10 -16 -26 -28 -35 -20 -16 -20 -17 0 -24 11 -4 29
-16 40 -28 18 -19 20 -19 23 -2 2 9 -3 25 -12 35 -19 21 -21 32 -4 29 7 -2 14
7 16 20 4 27 -25 31 -35 5z"/>
<path d="M4610 2652 c0 -5 -12 -22 -26 -38 -14 -16 -32 -39 -41 -51 -8 -13
-24 -23 -34 -23 -11 0 -19 -5 -19 -11 0 -5 -5 -7 -12 -3 -7 4 -8 3 -4 -4 4 -7
15 -12 26 -12 10 0 42 -11 72 -25 64 -30 110 -27 204 16 84 38 112 37 153 -5
18 -19 42 -36 52 -39 17 -5 19 1 19 42 0 46 -1 47 -32 48 -38 0 -69 13 -118
49 -31 23 -41 25 -88 19 -57 -7 -117 7 -126 30 -6 16 -26 21 -26 7z"/>
<path d="M567 2613 c-4 -3 -7 -11 -7 -17 0 -6 5 -5 12 2 6 6 9 14 7 17 -3 3
-9 2 -12 -2z"/>
<path d="M1275 2610 c-3 -5 -2 -10 4 -10 5 0 13 5 16 10 3 6 2 10 -4 10 -5 0
-13 -4 -16 -10z"/>
<path d="M530 2561 c0 -3 9 -12 20 -19 16 -10 20 -10 20 2 0 7 -9 16 -20 19
-11 3 -20 2 -20 -2z"/>
<path d="M4396 2513 c-6 -14 -5 -15 5 -6 7 7 10 15 7 18 -3 3 -9 -2 -12 -12z"/>
<path d="M455 2512 c-9 -9 -6 -62 4 -62 5 0 7 -10 4 -21 -4 -16 -2 -20 8 -17
8 3 14 11 14 19 0 8 9 16 20 19 32 9 28 34 -10 51 -19 9 -37 14 -40 11z"/>
<path d="M887 2439 c-15 -23 -26 -24 -73 -2 l-36 18 -22 -28 c-12 -15 -27 -27
-34 -27 -7 0 -12 -7 -12 -15 0 -8 -7 -15 -15 -15 -19 0 -65 -47 -65 -67 0 -12
-7 -14 -36 -10 -26 4 -37 2 -41 -9 -3 -8 -18 -21 -33 -29 -24 -12 -30 -12 -58
5 -17 11 -39 31 -48 45 -9 14 -25 30 -36 36 -26 14 -77 19 -83 9 -3 -5 -18 -5
-33 2 -15 6 -36 14 -47 18 -11 4 -32 12 -47 18 -22 9 -29 7 -44 -9 -12 -14
-21 -16 -30 -9 -8 8 -13 7 -17 -2 -3 -9 -11 -7 -29 10 -45 41 -48 34 -48 -142
l0 -163 39 -7 c21 -3 44 -13 51 -21 17 -20 50 -2 43 24 -4 17 -1 19 30 11 19
-4 39 -10 45 -14 6 -3 27 5 48 19 20 14 50 25 65 25 16 0 38 9 49 20 26 26 38
25 42 -2 4 -25 17 -32 38 -18 13 9 13 12 -2 24 -18 13 -25 45 -10 47 68 9 109
1 82 -16 -7 -5 -8 -11 -1 -18 12 -15 -4 -37 -41 -56 -42 -22 -44 -41 -3 -41
18 0 37 5 40 10 9 14 48 12 70 -4 13 -10 18 -25 18 -60 -1 -51 5 -54 48 -29
34 21 37 44 7 58 -12 6 -23 16 -26 23 -6 19 23 14 43 -8 10 -11 21 -16 24 -11
4 5 24 23 45 40 28 22 45 29 62 25 19 -5 24 -2 24 14 0 26 7 30 58 33 23 2 42
7 42 11 0 15 24 8 47 -14 32 -30 42 -12 31 50 -5 26 -11 83 -13 127 -3 44 -7
85 -9 91 -2 6 -23 20 -46 32 -40 20 -41 20 -53 1z m-156 -125 c11 -32 8 -36
-26 -36 -19 0 -25 -6 -25 -24 0 -12 5 -26 10 -29 6 -3 10 -12 10 -18 -1 -7 -5
-6 -13 4 -10 13 -16 13 -37 2 -21 -11 -27 -10 -37 4 -16 21 -8 30 11 14 13
-11 16 -9 21 12 4 14 18 35 31 48 13 12 24 28 24 36 0 23 20 14 31 -13z"/>
<path d="M4872 2248 c-14 -14 -16 -94 -3 -102 5 -3 17 -36 27 -73 23 -89 48
-139 73 -146 11 -2 22 -2 25 1 3 3 6 37 6 75 0 61 -3 73 -24 92 -14 13 -30 42
-36 66 -22 86 -26 94 -40 97 -9 1 -21 -3 -28 -10z"/>
<path d="M1540 2170 c0 -5 4 -10 9 -10 6 0 13 5 16 10 3 6 -1 10 -9 10 -9 0
-16 -4 -16 -10z"/>
<path d="M1053 2159 c-26 -9 -32 -39 -8 -35 20 3 38 22 34 34 -3 6 -13 6 -26
1z"/>
<path d="M873 2103 c9 -2 23 -2 30 0 6 3 -1 5 -18 5 -16 0 -22 -2 -12 -5z"/>
<path d="M1577 2064 c-13 -13 -7 -33 12 -44 11 -5 22 -7 25 -2 6 11 -28 54
-37 46z"/>
<path d="M4173 2048 c-24 -12 -31 -28 -11 -28 7 0 5 -7 -5 -18 -13 -14 -36
-116 -37 -164 0 -18 39 -6 90 27 30 19 58 35 63 35 5 0 6 8 2 18 -4 9 -15 44
-24 77 -17 64 -33 75 -78 53z m37 -8 c-8 -5 -19 -10 -25 -10 -5 0 -3 5 5 10 8
5 20 10 25 10 6 0 3 -5 -5 -10z"/>
<path d="M400 2010 c0 -5 5 -10 10 -10 6 0 10 5 10 10 0 6 -4 10 -10 10 -5 0
-10 -4 -10 -10z"/>
<path d="M6 1952 c-11 -10 -6 -32 6 -29 6 1 13 -7 15 -18 3 -16 2 -17 -6 -5
-8 11 -11 11 -11 2 0 -7 8 -16 18 -19 9 -4 19 -10 22 -14 3 -4 25 -12 48 -17
51 -12 56 2 16 45 -16 18 -24 22 -20 11 9 -28 -12 -21 -49 16 -18 19 -36 31
-39 28z"/>
<path d="M743 1887 c4 -11 2 -14 -9 -10 -22 8 -17 -11 10 -36 22 -21 33 -23
98 -20 l73 4 3 -42 c2 -24 7 -43 12 -43 20 0 33 87 15 98 -5 3 -24 5 -42 3
-20 -1 -55 8 -90 25 -32 16 -62 30 -67 32 -5 3 -6 -2 -3 -11z"/>
<path d="M235 1860 c3 -5 10 -10 16 -10 5 0 9 5 9 10 0 6 -7 10 -16 10 -8 0
-12 -4 -9 -10z"/>
<path d="M385 1820 c-10 -11 -25 -18 -32 -16 -10 4 -13 -7 -13 -39 0 -39 -3
-45 -20 -45 -11 0 -23 -8 -27 -17 -3 -10 -17 -27 -30 -38 -25 -21 -31 -46 -19
-82 5 -17 2 -23 -21 -31 -34 -11 -89 11 -96 39 -3 11 -10 19 -16 19 -7 0 -7
-8 -2 -22 6 -17 4 -26 -8 -35 -14 -11 -14 -12 4 -13 11 0 28 -9 38 -20 13 -15
24 -19 45 -14 15 4 29 11 30 16 2 4 8 6 13 2 5 -3 9 2 9 10 0 9 8 15 18 14 36
-3 48 3 65 32 10 17 14 30 8 30 -5 0 -11 -4 -13 -9 -2 -5 -14 -5 -27 1 l-25 9
22 21 22 22 30 -29 c17 -17 36 -30 43 -31 33 -3 37 -5 37 -19 0 -19 3 -19 41
4 18 11 26 22 20 25 -16 10 -13 26 5 26 8 0 13 4 10 9 -4 5 -2 11 2 13 5 1 -1
14 -13 26 l-22 24 -14 -31 c-17 -39 -23 -39 -46 -1 -9 17 -21 30 -24 30 -14 0
-19 37 -10 64 8 19 18 26 36 26 28 0 31 8 12 34 -12 16 -14 16 -32 -4z m15
-182 c0 -4 -16 2 -35 13 -35 21 -41 30 -28 42 7 8 63 -41 63 -55z"/>
<path d="M167 1762 c-21 -23 -22 -42 -2 -42 8 0 15 7 15 17 0 14 2 14 20 -2
16 -15 20 -15 20 -3 0 8 -8 22 -18 32 -18 15 -20 15 -35 -2z"/>
<path d="M1558 1724 c-3 -3 -20 -6 -36 -6 -21 -1 -37 -10 -52 -29 l-21 -29 29
0 c102 0 157 27 116 57 -20 14 -28 16 -36 7z"/>
<path d="M710 1713 c0 -5 5 -15 10 -23 8 -12 10 -11 10 8 0 12 -4 22 -10 22
-5 0 -10 -3 -10 -7z"/>
<path d="M1307 1689 c-12 -7 -16 -17 -12 -29 3 -11 1 -29 -5 -40 -9 -16 -8
-25 0 -36 10 -11 9 -19 -4 -39 -21 -31 -21 -30 13 -33 27 -2 29 0 35 50 4 28
14 64 22 80 23 45 -5 72 -49 47z"/>
<path d="M990 1660 c0 -5 7 -10 15 -10 8 0 15 5 15 10 0 6 -7 10 -15 10 -8 0
-15 -4 -15 -10z"/>
<path d="M1208 1564 c-4 -3 0 -21 8 -40 8 -19 14 -36 14 -39 0 -21 1 -25 9
-25 17 0 21 48 5 79 -15 30 -25 37 -36 25z"/>
<path d="M386 1534 c-8 -22 1 -31 16 -16 9 9 9 15 1 23 -7 7 -12 5 -17 -7z"/>
<path d="M165 1459 c-10 -15 1 -23 20 -15 9 3 13 10 10 16 -8 13 -22 13 -30
-1z"/>
<path d="M1760 1420 c0 -5 7 -7 15 -4 8 4 15 8 15 10 0 2 -7 4 -15 4 -8 0 -15
-4 -15 -10z"/>
<path d="M1710 1403 c-28 -5 -50 -21 -50 -34 0 -17 32 -9 62 16 16 14 26 24
21 24 -4 -1 -19 -4 -33 -6z"/>
<path d="M0 1351 c0 -16 15 -20 40 -14 22 6 23 7 4 14 -27 11 -44 11 -44 0z"/>
<path d="M970 1325 c0 -8 4 -15 10 -15 5 0 7 7 4 15 -4 8 -8 15 -10 15 -2 0
-4 -7 -4 -15z"/>
<path d="M1565 1300 c-19 -7 -54 -40 -43 -40 9 0 88 41 88 45 0 7 -22 5 -45
-5z"/>
<path d="M10 1110 c0 -5 5 -10 10 -10 6 0 10 5 10 10 0 6 -4 10 -10 10 -5 0
-10 -4 -10 -10z"/>
<path d="M0 1031 c0 -11 4 -21 9 -21 18 0 21 18 6 30 -13 10 -15 9 -15 -9z"/>
<path d="M1602 1024 c1 -9 9 -19 16 -22 9 -3 13 2 10 14 -1 9 -9 19 -16 22 -9
3 -13 -2 -10 -14z"/>
<path d="M1880 1015 c0 -21 28 -31 43 -16 9 9 8 14 -3 21 -22 14 -40 12 -40
-5z"/>
<path d="M1055 1010 c-4 -6 -3 -16 3 -22 6 -6 12 -6 17 2 4 6 3 16 -3 22 -6 6
-12 6 -17 -2z"/>
<path d="M1890 941 c0 -16 20 -24 65 -25 27 -1 41 3 38 10 -2 6 -16 11 -31 10
-15 0 -37 3 -49 7 -14 5 -23 4 -23 -2z"/>
<path d="M787 912 c-11 -2 -16 -10 -13 -17 4 -10 -4 -12 -31 -8 -26 4 -34 3
-29 -5 4 -7 16 -12 27 -12 10 0 28 -5 39 -12 10 -7 23 -9 27 -5 4 5 1 12 -6
16 -11 7 -9 11 5 19 23 13 8 31 -19 24z"/>
<path d="M100 898 c0 -18 18 -34 28 -24 3 4 -2 14 -11 23 -16 16 -17 16 -17 1z"/>
<path d="M222 855 c-15 -8 -20 -15 -12 -20 6 -4 17 -2 24 4 7 6 15 8 19 5 10
-10 140 -5 151 6 7 7 1 10 -20 11 -113 6 -142 4 -162 -6z"/>
<path d="M13 845 c-19 -21 -16 -82 5 -94 13 -8 14 -12 4 -19 -10 -7 -7 -13 12
-25 27 -18 45 -7 22 12 -8 7 -12 21 -9 31 3 11 -1 27 -8 36 -10 13 -10 17 2
25 8 5 22 9 32 9 20 0 22 11 5 28 -16 16 -50 15 -65 -3z"/>
<path d="M727 853 c-4 -3 -57 -5 -119 -4 -85 1 -118 -2 -133 -12 -16 -13 -17
-17 -6 -31 7 -9 19 -16 26 -16 7 0 18 -15 25 -32 11 -32 12 -32 21 -10 7 18
17 22 51 23 64 2 82 -2 91 -17 4 -8 19 -14 32 -14 21 0 23 3 18 38 -4 27 -1
42 11 51 9 7 16 17 16 22 0 10 -24 12 -33 2z"/>
<path d="M813 793 c-16 -6 -17 -29 -2 -39 12 -7 29 12 29 34 0 13 -6 14 -27 5z"/>
<path d="M880 782 c0 -4 9 -8 19 -8 11 0 17 4 15 8 -7 10 -34 10 -34 0z"/>
<path d="M100 761 c0 -13 29 -35 37 -28 7 8 -15 37 -28 37 -5 0 -9 -4 -9 -9z"/>
<path d="M323 700 c-35 -14 -27 -30 13 -30 28 0 35 4 32 17 -4 21 -17 24 -45
13z"/>
<path d="M430 665 c0 -8 5 -15 10 -15 6 0 10 7 10 15 0 8 -4 15 -10 15 -5 0
-10 -7 -10 -15z"/>
<path d="M640 670 c0 -5 4 -10 9 -10 6 0 13 5 16 10 3 6 -1 10 -9 10 -9 0 -16
-4 -16 -10z"/>
<path d="M710 651 c0 -5 5 -13 10 -16 6 -3 10 -2 10 4 0 5 -4 13 -10 16 -5 3
-10 2 -10 -4z"/>
<path d="M22 623 c5 -25 28 -28 28 -4 0 12 -6 21 -16 21 -9 0 -14 -7 -12 -17z"/>
<path d="M370 611 c0 -6 5 -13 10 -16 6 -3 10 1 10 9 0 9 -4 16 -10 16 -5 0
-10 -4 -10 -9z"/>
<path d="M330 590 c0 -6 7 -10 15 -10 8 0 15 2 15 4 0 2 -7 6 -15 10 -8 3 -15
1 -15 -4z"/>
<path d="M750 591 c0 -5 7 -14 15 -21 16 -14 18 -10 9 14 -6 17 -24 22 -24 7z"/>
<path d="M400 573 c0 -5 5 -15 10 -23 8 -12 10 -11 10 8 0 12 -4 22 -10 22 -5
0 -10 -3 -10 -7z"/>
<path d="M60 540 c0 -5 4 -10 9 -10 6 0 13 5 16 10 3 6 -1 10 -9 10 -9 0 -16
-4 -16 -10z"/>
<path d="M435 540 c3 -5 8 -10 11 -10 2 0 4 5 4 10 0 6 -5 10 -11 10 -5 0 -7
-4 -4 -10z"/>
<path d="M140 500 c0 -5 4 -10 9 -10 6 0 13 5 16 10 3 6 -1 10 -9 10 -9 0 -16
-4 -16 -10z"/>
<path d="M245 470 c-3 -5 1 -10 9 -10 9 0 16 5 16 10 0 6 -4 10 -9 10 -6 0
-13 -4 -16 -10z"/>
<path d="M35 440 c3 -5 15 -10 26 -10 11 0 17 5 14 10 -3 6 -15 10 -26 10 -11
0 -17 -4 -14 -10z"/>
<path d="M44 335 c-4 -8 -16 -16 -28 -16 -20 -1 -20 -2 -1 -6 11 -3 25 -9 30
-13 6 -5 28 -11 50 -15 22 -3 50 -8 63 -11 20 -4 21 -2 11 14 -11 17 -31 29
-92 51 -22 9 -29 8 -33 -4z"/>
</g>
</svg>
